# xmcd CD database file
#
# Track frame offsets:
#	150
#	11879
#	26696
#	40856
#	54779
#	68471
#	78157
#	92333
#	107354
#	118496
#	131934
#	145442
#	160104
#	174606
#	187173
#	201307
#	213873
#	227453
#	241098
#	255191
#
# Disc length: 3594 seconds
#
# Revision: 1
# Processed by: cddbd v1.5.2PL0 Copyright (c) Steve Scherf et al.
# Submitted via: CDex 1.51
#
DISCID=060e0814
DTITLE=Various Artist - Jazz Disc 5
DYEAR=2001
DGENRE=Jazz
TTITLE0=Ereoll Garner Trio - I've Got You Under My Skin
TTITLE1=Art Tatum - Sophisticated Lady
TTITLE2=Oscar Peterson Trio - At Sundown
TTITLE3=Benny Carter - Cocktails For Two
TTITLE4=Jimmy Dorsey and His Orchestra - Contrasts
TTITLE5=Dizzy Gillespie and His Orchestra - Night In Tunisia
TTITLE6=Duke Ellington and His Orchestra - Mood Indigo
TTITLE7=Lionel Hampton and His Orchestra - Midnight Sun
TTITLE8=don Byas - Time On My Hands
TTITLE9=Claude Thornhill and His Orchestra - Snowfall
TTITLE10=Duk Ellington - The Mood To Be Wooed
TTITLE11=George Shearing - September In The Rain
TTITLE12=Sarah Vaughan - It Might As Well Be Spring
TTITLE13=Oscar Peterson - Poor Butterfly
TTITLE14=Mel Torme - Skylark
TTITLE15=Erroll Garner - Stardust
TTITLE16=Margaret Whiting - Come Rain Or Come Shine
TTITLE17=Miles Davis - Boplicity
TTITLE18=Art Tatum - Lullaby Of The  Leaves
TTITLE19=Billie Holiday - As Time Goes By
EXTD=YEAR: 2001
EXTT0=
EXTT1=
EXTT2=
EXTT3=
EXTT4=
EXTT5=
EXTT6=
EXTT7=
EXTT8=
EXTT9=
EXTT10=
EXTT11=
EXTT12=
EXTT13=
EXTT14=
EXTT15=
EXTT16=
EXTT17=
EXTT18=
EXTT19=
PLAYORDER=
